<mxfile host="app.diagrams.net" agent="Mozilla/5.0 (Windows NT 10.0; Win64; x64) AppleWebKit/537.36 (KHTML, like Gecko) Chrome/135.0.0.0 Safari/537.36" version="26.2.6">
  <diagram name="Page-1" id="Mv4DzUgwf-dZMnxKZWGB">
    <mxGraphModel dx="1044" dy="567" grid="1" gridSize="10" guides="1" tooltips="1" connect="1" arrows="1" fold="1" page="1" pageScale="1" pageWidth="850" pageHeight="1100" math="0" shadow="0">
      <root>
        <mxCell id="0" />
        <mxCell id="1" parent="0" />
        <mxCell id="xWfczAlfACUv2srGZ-IM-7" style="edgeStyle=orthogonalEdgeStyle;rounded=0;orthogonalLoop=1;jettySize=auto;html=1;exitX=0;exitY=0.5;exitDx=0;exitDy=0;entryX=1;entryY=0.5;entryDx=0;entryDy=0;" parent="1" source="xWfczAlfACUv2srGZ-IM-1" target="xWfczAlfACUv2srGZ-IM-2" edge="1">
          <mxGeometry relative="1" as="geometry" />
        </mxCell>
        <mxCell id="xWfczAlfACUv2srGZ-IM-9" style="edgeStyle=orthogonalEdgeStyle;rounded=0;orthogonalLoop=1;jettySize=auto;html=1;exitX=0.5;exitY=0;exitDx=0;exitDy=0;entryX=0.5;entryY=1;entryDx=0;entryDy=0;" parent="1" source="xWfczAlfACUv2srGZ-IM-1" target="xWfczAlfACUv2srGZ-IM-3" edge="1">
          <mxGeometry relative="1" as="geometry" />
        </mxCell>
        <mxCell id="xWfczAlfACUv2srGZ-IM-10" style="edgeStyle=orthogonalEdgeStyle;rounded=0;orthogonalLoop=1;jettySize=auto;html=1;" parent="1" source="xWfczAlfACUv2srGZ-IM-1" target="xWfczAlfACUv2srGZ-IM-4" edge="1">
          <mxGeometry relative="1" as="geometry" />
        </mxCell>
        <mxCell id="xWfczAlfACUv2srGZ-IM-14" style="edgeStyle=orthogonalEdgeStyle;rounded=0;orthogonalLoop=1;jettySize=auto;html=1;entryX=0.5;entryY=0;entryDx=0;entryDy=0;" parent="1" source="xWfczAlfACUv2srGZ-IM-1" target="xWfczAlfACUv2srGZ-IM-5" edge="1">
          <mxGeometry relative="1" as="geometry" />
        </mxCell>
        <mxCell id="xWfczAlfACUv2srGZ-IM-1" value="&lt;font style=&quot;font-size: 24px;&quot; face=&quot;Times New Roman&quot;&gt;EduMart System&lt;/font&gt;" style="ellipse;whiteSpace=wrap;html=1;" parent="1" vertex="1">
          <mxGeometry x="320" y="190" width="235" height="150" as="geometry" />
        </mxCell>
        <mxCell id="xWfczAlfACUv2srGZ-IM-6" style="edgeStyle=orthogonalEdgeStyle;rounded=0;orthogonalLoop=1;jettySize=auto;html=1;exitX=1;exitY=0.25;exitDx=0;exitDy=0;entryX=0.009;entryY=0.367;entryDx=0;entryDy=0;entryPerimeter=0;" parent="1" source="xWfczAlfACUv2srGZ-IM-2" target="xWfczAlfACUv2srGZ-IM-1" edge="1">
          <mxGeometry relative="1" as="geometry">
            <mxPoint x="250" y="245" as="targetPoint" />
          </mxGeometry>
        </mxCell>
        <mxCell id="xWfczAlfACUv2srGZ-IM-2" value="&lt;font style=&quot;font-size: 18px;&quot;&gt;Clients&lt;/font&gt;" style="rounded=0;whiteSpace=wrap;html=1;" parent="1" vertex="1">
          <mxGeometry x="30" y="225" width="150" height="80" as="geometry" />
        </mxCell>
        <mxCell id="xWfczAlfACUv2srGZ-IM-3" value="&lt;font style=&quot;font-size: 18px;&quot;&gt;Django Admin&lt;/font&gt;" style="rounded=0;whiteSpace=wrap;html=1;" parent="1" vertex="1">
          <mxGeometry x="362.5" y="40" width="150" height="80" as="geometry" />
        </mxCell>
        <mxCell id="xWfczAlfACUv2srGZ-IM-4" value="&lt;font style=&quot;font-size: 18px;&quot;&gt;Service Providers&lt;/font&gt;" style="rounded=0;whiteSpace=wrap;html=1;" parent="1" vertex="1">
          <mxGeometry x="650" y="225" width="170" height="80" as="geometry" />
        </mxCell>
        <mxCell id="xWfczAlfACUv2srGZ-IM-5" value="&lt;font style=&quot;font-size: 18px;&quot;&gt;Payment Gateway&lt;/font&gt;" style="rounded=0;whiteSpace=wrap;html=1;" parent="1" vertex="1">
          <mxGeometry x="353.75" y="410" width="167.5" height="80" as="geometry" />
        </mxCell>
        <mxCell id="xWfczAlfACUv2srGZ-IM-8" style="edgeStyle=orthogonalEdgeStyle;rounded=0;orthogonalLoop=1;jettySize=auto;html=1;exitX=0.25;exitY=1;exitDx=0;exitDy=0;entryX=0.339;entryY=0.032;entryDx=0;entryDy=0;entryPerimeter=0;" parent="1" source="xWfczAlfACUv2srGZ-IM-3" target="xWfczAlfACUv2srGZ-IM-1" edge="1">
          <mxGeometry relative="1" as="geometry" />
        </mxCell>
        <mxCell id="xWfczAlfACUv2srGZ-IM-13" style="edgeStyle=orthogonalEdgeStyle;rounded=0;orthogonalLoop=1;jettySize=auto;html=1;exitX=0;exitY=0.75;exitDx=0;exitDy=0;" parent="1" source="xWfczAlfACUv2srGZ-IM-4" edge="1">
          <mxGeometry relative="1" as="geometry">
            <mxPoint x="550" y="285" as="targetPoint" />
          </mxGeometry>
        </mxCell>
        <mxCell id="xWfczAlfACUv2srGZ-IM-15" style="edgeStyle=orthogonalEdgeStyle;rounded=0;orthogonalLoop=1;jettySize=auto;html=1;exitX=0.25;exitY=0;exitDx=0;exitDy=0;entryX=0.318;entryY=0.976;entryDx=0;entryDy=0;entryPerimeter=0;" parent="1" source="xWfczAlfACUv2srGZ-IM-5" target="xWfczAlfACUv2srGZ-IM-1" edge="1">
          <mxGeometry relative="1" as="geometry" />
        </mxCell>
      </root>
    </mxGraphModel>
  </diagram>
</mxfile>
